<svg xmlns="http://www.w3.org/2000/svg" width="24" height="16" viewBox="0 0 24 16">
  <!-- Background -->
  <rect width="24" height="16" fill="#ffffff"/>
  
  <!-- Red stripes -->
  <rect y="0" width="24" height="1.23" fill="#B22234"/>
  <rect y="2.46" width="24" height="1.23" fill="#B22234"/>
  <rect y="4.92" width="24" height="1.23" fill="#B22234"/>
  <rect y="7.38" width="24" height="1.23" fill="#B22234"/>
  <rect y="9.84" width="24" height="1.23" fill="#B22234"/>
  <rect y="12.3" width="24" height="1.23" fill="#B22234"/>
  <rect y="14.76" width="24" height="1.23" fill="#B22234"/>
  
  <!-- Blue field -->
  <rect width="9.6" height="8.63" fill="#3C3B6E"/>
  
  <!-- Stars (simplified) -->
  <circle cx="2.4" cy="1.7" r="0.4" fill="#ffffff"/>
  <circle cx="4.8" cy="1.7" r="0.4" fill="#ffffff"/>
  <circle cx="7.2" cy="1.7" r="0.4" fill="#ffffff"/>
  <circle cx="2.4" cy="3.4" r="0.4" fill="#ffffff"/>
  <circle cx="4.8" cy="3.4" r="0.4" fill="#ffffff"/>
  <circle cx="7.2" cy="3.4" r="0.4" fill="#ffffff"/>
  <circle cx="2.4" cy="5.1" r="0.4" fill="#ffffff"/>
  <circle cx="4.8" cy="5.1" r="0.4" fill="#ffffff"/>
  <circle cx="7.2" cy="5.1" r="0.4" fill="#ffffff"/>
  <circle cx="2.4" cy="6.8" r="0.4" fill="#ffffff"/>
  <circle cx="4.8" cy="6.8" r="0.4" fill="#ffffff"/>
  <circle cx="7.2" cy="6.8" r="0.4" fill="#ffffff"/>
</svg> 