<svg xmlns="http://www.w3.org/2000/svg" width="24" height="16" viewBox="0 0 24 16">
  <rect width="24" height="16" fill="#de2910"/>
  <g fill="#ffde00">
    <polygon points="5,2 6,4.5 8.5,4.5 6.5,6 7.5,8.5 5,7 2.5,8.5 3.5,6 1.5,4.5 4,4.5"/>
    <polygon points="10,2 10.5,3 11.5,3 10.75,3.75 11.25,4.75 10,4.25 8.75,4.75 9.25,3.75 8.5,3 9.5,3"/>
    <polygon points="12,4 12.5,5 13.5,5 12.75,5.75 13.25,6.75 12,6.25 10.75,6.75 11.25,5.75 10.5,5 11.5,5"/>
    <polygon points="10,7 10.5,8 11.5,8 10.75,8.75 11.25,9.75 10,9.25 8.75,9.75 9.25,8.75 8.5,8 9.5,8"/>
    <polygon points="12,9 12.5,10 13.5,10 12.75,10.75 13.25,11.75 12,11.25 10.75,11.75 11.25,10.75 10.5,10 11.5,10"/>
  </g>
</svg> 